<svg width="1282" height="445" viewBox="0 0 1282 445" fill="none" xmlns="http://www.w3.org/2000/svg">
<path d="M958.128 246.046L879.748 324.218V399.25L1040.36 239.066L994.168 193H879.748V246.046H958.128Z" fill="white"/>
<path d="M1073.25 390.176L987.52 304.675L950.255 341.842L998.717 390.176H1073.25Z" fill="white"/>
<path d="M849.75 331.75H784.5C761.148 376.752 739.543 382.339 707.25 389.875C778.032 413.619 816.957 395.144 849.75 331.75Z" stroke="white" stroke-width="10"/>
<path d="M722.25 343.75H658.875C645.957 306.982 643.693 286.451 658.875 250H722.25C691.136 285.835 693.238 310.491 722.25 343.75Z" stroke="white" stroke-width="10"/>
<path d="M849.429 261.832H784.179C760.827 216.83 739.221 211.243 706.929 203.707C777.711 179.963 816.636 198.438 849.429 261.832Z" stroke="white" stroke-width="10"/>
<path d="M721.929 249.832H658.554C645.635 286.6 643.371 307.131 658.554 343.582H721.929C690.815 307.747 692.916 283.091 721.929 249.832Z" stroke="white" stroke-width="10"/>
<path d="M1057.5 250.132V323.824L1117.71 400L1177.5 323.824V400H1227.75V193L1117.71 323.824L1057.5 250.132Z" fill="white"/>
<path d="M691.049 151.5C683.449 151.6 676.849 150.4 671.249 147.9C665.649 145.4 660.299 141.65 655.199 136.65C654.699 136.25 654.249 135.75 653.849 135.15C653.549 134.55 653.399 133.85 653.399 133.05C653.399 131.85 653.849 130.75 654.749 129.75C655.749 128.75 656.849 128.25 658.049 128.25C659.249 128.25 660.349 128.75 661.349 129.75C665.249 133.95 669.649 137.15 674.549 139.35C679.549 141.55 684.899 142.65 690.599 142.65C695.399 142.65 699.649 141.9 703.349 140.4C707.149 138.9 710.149 136.75 712.349 133.95C714.549 131.15 715.649 127.9 715.649 124.2C715.649 119.6 714.399 115.9 711.899 113.1C709.399 110.2 706.099 107.85 701.999 106.05C697.899 104.15 693.349 102.45 688.349 100.95C684.249 99.75 680.349 98.4 676.649 96.9C672.949 95.3 669.649 93.4 666.749 91.2C663.849 88.9 661.599 86.1 659.999 82.8C658.399 79.5 657.599 75.5 657.599 70.8C657.599 65.5 658.999 60.8 661.799 56.7C664.599 52.6 668.549 49.4 673.649 47.1C678.849 44.7 684.849 43.5 691.649 43.5C697.549 43.5 703.199 44.5 708.599 46.5C714.099 48.5 718.449 51.45 721.649 55.35C723.149 56.95 723.899 58.4 723.899 59.7C723.899 60.7 723.399 61.7 722.399 62.7C721.399 63.7 720.299 64.2 719.099 64.2C718.099 64.2 717.249 63.85 716.549 63.15C714.849 61.05 712.699 59.2 710.099 57.6C707.499 55.9 704.599 54.6 701.399 53.7C698.299 52.8 695.049 52.35 691.649 52.35C686.949 52.35 682.699 53.1 678.899 54.6C675.199 56 672.249 58.05 670.049 60.75C667.949 63.45 666.899 66.7 666.899 70.5C666.899 74.7 668.099 78.15 670.499 80.85C672.899 83.55 676.049 85.8 679.949 87.6C683.849 89.3 687.999 90.9 692.399 92.4C696.699 93.6 700.799 95 704.699 96.6C708.699 98.1 712.199 100 715.199 102.3C718.299 104.6 720.699 107.5 722.399 111C724.199 114.5 725.099 118.9 725.099 124.2C725.099 129.3 723.649 133.9 720.749 138C717.849 142.1 713.849 145.35 708.749 147.75C703.749 150.15 697.849 151.4 691.049 151.5ZM835.578 45C836.978 45 838.078 45.45 838.878 46.35C839.678 47.15 840.078 48.2 840.078 49.5V111.6C840.078 119 838.328 125.7 834.828 131.7C831.328 137.7 826.628 142.5 820.728 146.1C814.828 149.6 808.178 151.35 800.778 151.35C793.378 151.35 786.678 149.6 780.678 146.1C774.778 142.5 770.078 137.7 766.578 131.7C763.078 125.7 761.328 119 761.328 111.6V49.5C761.328 48.2 761.728 47.15 762.528 46.35C763.428 45.45 764.628 45 766.128 45C767.328 45 768.378 45.45 769.278 46.35C770.178 47.15 770.628 48.2 770.628 49.5V111.6C770.628 117.4 771.978 122.6 774.678 127.2C777.478 131.8 781.178 135.5 785.778 138.3C790.378 141 795.378 142.35 800.778 142.35C806.378 142.35 811.478 141 816.078 138.3C820.678 135.5 824.328 131.8 827.028 127.2C829.828 122.6 831.228 117.4 831.228 111.6V49.5C831.228 48.2 831.628 47.15 832.428 46.35C833.228 45.45 834.278 45 835.578 45ZM958.261 150.6C956.961 150.6 955.861 150.05 954.961 148.95L912.361 95.4L919.411 88.35L962.311 142.65C963.011 143.65 963.361 144.7 963.361 145.8C963.361 147.4 962.761 148.6 961.561 149.4C960.461 150.2 959.361 150.6 958.261 150.6ZM956.611 45.3C957.811 45.3 958.811 45.75 959.611 46.65C960.511 47.55 960.961 48.55 960.961 49.65C960.961 50.85 960.511 51.9 959.611 52.8L891.511 116.55L890.311 106.35L953.311 46.8C954.311 45.8 955.411 45.3 956.611 45.3ZM887.911 150C886.511 150 885.361 149.55 884.461 148.65C883.661 147.75 883.261 146.65 883.261 145.35V49.65C883.261 48.35 883.711 47.25 884.611 46.35C885.511 45.45 886.661 45 888.061 45C889.361 45 890.461 45.45 891.361 46.35C892.261 47.25 892.711 48.35 892.711 49.65V145.35C892.611 146.65 892.111 147.75 891.211 148.65C890.311 149.55 889.211 150 887.911 150ZM1008.93 145.35C1008.83 146.65 1008.28 147.75 1007.28 148.65C1006.38 149.55 1005.33 150 1004.13 150C1002.73 150 1001.58 149.55 1000.68 148.65C999.882 147.75 999.482 146.65 999.482 145.35V49.65C999.482 48.35 999.932 47.25 1000.83 46.35C1001.73 45.45 1002.88 45 1004.28 45C1005.48 45 1006.53 45.45 1007.43 46.35C1008.43 47.25 1008.93 48.35 1008.93 49.65V145.35Z" fill="white"/>
<path d="M276.346 173.512C242.168 206.503 220.383 228.149 208.655 242.342C199.179 253.81 193.644 269.227 196.463 283.834C196.71 285.112 197.015 286.384 197.376 287.657C203.55 309.419 224.934 328.342 247.542 329.111C261.77 329.595 272.821 321.485 284.007 312.679L297.895 301.747C323.657 285.273 337.018 283.919 351.939 290.838C363.552 296.222 374.831 304.584 378.487 316.852C384.3 336.36 372.863 359.412 362.499 385L555.393 187.336C576.166 166.05 594.902 140.83 597.594 111.211C599.206 93.4827 596.101 77.3818 586.513 58.8554C577.53 41.4987 563.338 27.2564 546.627 17.1232C515.478 -1.76393 490.972 -4.50561 459.774 6.33468C439.989 13.2098 423.297 26.5609 408.485 41.3722L276.346 173.512Z" fill="white"/>
<path d="M194.086 118.132L263.697 185.877L227.04 222.657C214.219 235.52 200.787 249.406 197.311 267.231C195.472 276.66 196.683 285.835 201.832 296.726C208.632 311.109 220.577 322.261 236.015 326.107C253.102 330.365 271.075 321.419 285.217 310.926L301.06 299.172C325.041 283.694 339.025 279.665 367.042 299.172C379.976 309.305 386.224 318.815 386.489 332.192C387.015 358.783 367.383 380.906 348.577 399.712C330.756 417.533 310.094 433.976 285.243 438.173C275.084 439.889 264.537 440.09 252.098 438.323C222.167 434.073 196.614 415.605 175.237 394.229L53.3494 272.34C29.5135 248.505 9.61813 219.397 5.84121 185.9C2.96724 160.411 7.24654 140.73 21.8071 119.726C27.7914 111.093 35.4116 103.678 43.7949 97.349C68.0665 79.026 89.1527 71.4883 120.356 76.2074C148.924 80.5279 173.38 97.9808 194.086 118.132Z" stroke="#FFF7F7" stroke-width="10"/>
<circle cx="1265.5" cy="383.5" r="16.5" fill="white"/>
</svg>
