<svg width="1286" height="440" viewBox="0 0 1286 440" fill="none" xmlns="http://www.w3.org/2000/svg">
<path d="M953.129 246.044L874.749 324.216V399.248L1035.36 239.064L989.169 192.998H874.749V246.044H953.129Z" fill="url(#paint0_linear_1237_829)"/>
<path d="M1068.25 390.174L982.521 304.673L945.256 341.84L993.718 390.174H1068.25Z" fill="url(#paint1_linear_1237_829)"/>
<path d="M953.129 246.044L874.749 324.216V399.248L1035.36 239.064L989.169 192.998H874.749V246.044H953.129Z" fill="url(#paint2_linear_1237_829)"/>
<path d="M1068.25 390.174L982.521 304.673L945.256 341.84L993.718 390.174H1068.25Z" fill="url(#paint3_linear_1237_829)"/>
<path d="M844.751 331.748H779.501C756.149 376.75 734.544 382.337 702.251 389.873C773.033 413.617 811.958 395.142 844.751 331.748Z" fill="url(#paint4_linear_1237_829)"/>
<path d="M717.251 343.748H653.876C640.958 306.98 638.694 286.449 653.876 249.998H717.251C686.137 285.833 688.238 310.489 717.251 343.748Z" fill="url(#paint5_linear_1237_829)"/>
<path d="M844.43 261.828H779.18C755.828 216.826 734.222 211.24 701.93 203.703C772.712 179.959 811.637 198.434 844.43 261.828Z" fill="url(#paint6_linear_1237_829)"/>
<path d="M716.93 249.828H653.555C640.636 286.596 638.372 307.127 653.555 343.578H716.93C685.816 307.743 687.917 283.087 716.93 249.828Z" fill="url(#paint7_linear_1237_829)"/>
<path d="M1052.5 250.13V323.822L1112.71 399.998L1172.5 323.822V399.998H1222.75V192.998L1112.71 323.822L1052.5 250.13Z" fill="url(#paint8_linear_1237_829)"/>
<path d="M1052.5 250.13V323.822L1112.71 399.998L1172.5 323.822V399.998H1222.75V192.998L1112.71 323.822L1052.5 250.13Z" fill="url(#paint9_linear_1237_829)"/>
<path d="M687.4 151.5C680.2 151.5 673.8 150.5 668.2 148.5C662.6 146.5 657.25 143.2 652.15 138.6C651.05 137.8 650.2 136.85 649.6 135.75C649.1 134.55 648.85 133.35 648.85 132.15C648.85 130.25 649.55 128.55 650.95 127.05C652.35 125.55 654.1 124.8 656.2 124.8C657.8 124.8 659.3 125.35 660.7 126.45C664.5 129.95 668.45 132.6 672.55 134.4C676.75 136.2 681.65 137.1 687.25 137.1C691.25 137.1 694.9 136.45 698.2 135.15C701.6 133.85 704.3 132.1 706.3 129.9C708.3 127.7 709.3 125.15 709.3 122.25C709.3 118.65 708.25 115.7 706.15 113.4C704.15 111 701.2 109.05 697.3 107.55C693.5 105.95 688.9 104.6 683.5 103.5C678.5 102.6 674 101.35 670 99.75C666.1 98.15 662.75 96.15 659.95 93.75C657.15 91.25 655 88.3 653.5 84.9C652 81.5 651.25 77.55 651.25 73.05C651.25 66.95 652.85 61.7 656.05 57.3C659.25 52.9 663.6 49.5 669.1 47.1C674.6 44.7 680.8 43.5 687.7 43.5C694 43.5 699.9 44.5 705.4 46.5C710.9 48.4 715.35 51 718.75 54.3C721.15 56.4 722.35 58.65 722.35 61.05C722.35 62.85 721.6 64.55 720.1 66.15C718.7 67.65 717.05 68.4 715.15 68.4C713.75 68.4 712.55 68 711.55 67.2C709.95 65.5 707.8 64 705.1 62.7C702.4 61.3 699.5 60.15 696.4 59.25C693.4 58.35 690.5 57.9 687.7 57.9C683.2 57.9 679.35 58.55 676.15 59.85C672.95 61.05 670.5 62.75 668.8 64.95C667.1 67.05 666.25 69.55 666.25 72.45C666.25 75.85 667.2 78.65 669.1 80.85C671.1 83.05 673.85 84.85 677.35 86.25C680.85 87.55 684.85 88.75 689.35 89.85C694.85 91.05 699.75 92.4 704.05 93.9C708.45 95.4 712.15 97.35 715.15 99.75C718.15 102.05 720.45 104.95 722.05 108.45C723.65 111.95 724.45 116.3 724.45 121.5C724.45 127.5 722.75 132.75 719.35 137.25C715.95 141.75 711.45 145.25 705.85 147.75C700.35 150.25 694.2 151.5 687.4 151.5ZM832.444 44.85C834.644 44.85 836.394 45.6 837.694 47.1C838.994 48.5 839.644 50.3 839.644 52.5V109.35C839.644 117.35 837.894 124.5 834.394 130.8C830.894 137.1 826.094 142.05 819.994 145.65C813.894 149.15 806.844 150.9 798.844 150.9C790.944 150.9 783.894 149.15 777.694 145.65C771.594 142.05 766.744 137.1 763.144 130.8C759.644 124.5 757.894 117.35 757.894 109.35V52.5C757.894 50.3 758.644 48.5 760.144 47.1C761.644 45.6 763.594 44.85 765.994 44.85C767.894 44.85 769.594 45.6 771.094 47.1C772.694 48.5 773.494 50.3 773.494 52.5V109.35C773.494 114.65 774.644 119.3 776.944 123.3C779.344 127.2 782.494 130.3 786.394 132.6C790.294 134.8 794.444 135.9 798.844 135.9C803.644 135.9 808.044 134.8 812.044 132.6C816.044 130.3 819.244 127.2 821.644 123.3C824.144 119.3 825.394 114.65 825.394 109.35V52.5C825.394 50.3 825.994 48.5 827.194 47.1C828.494 45.6 830.244 44.85 832.444 44.85ZM952.295 150.15C949.995 150.15 948.145 149.2 946.745 147.3L909.395 99.15L920.945 87.45L959.045 137.1C960.245 138.7 960.845 140.45 960.845 142.35C960.845 144.75 959.945 146.65 958.145 148.05C956.345 149.45 954.395 150.15 952.295 150.15ZM953.045 44.55C955.045 44.55 956.695 45.35 957.995 46.95C959.295 48.55 959.945 50.2 959.945 51.9C959.945 53.7 959.195 55.35 957.695 56.85L893.045 118.2L892.145 100.5L947.045 47.4C948.845 45.5 950.845 44.55 953.045 44.55ZM886.895 150C884.595 150 882.695 149.3 881.195 147.9C879.795 146.4 879.095 144.55 879.095 142.35V52.65C879.095 50.45 879.845 48.65 881.345 47.25C882.845 45.75 884.795 45 887.195 45C889.495 45 891.345 45.75 892.745 47.25C894.145 48.65 894.845 50.45 894.845 52.65V142.35C894.745 144.55 893.995 146.4 892.595 147.9C891.195 149.3 889.295 150 886.895 150ZM1009.16 142.35C1009.06 144.55 1008.21 146.4 1006.61 147.9C1005.11 149.3 1003.31 150 1001.21 150C998.912 150 997.012 149.3 995.512 147.9C994.112 146.4 993.412 144.55 993.412 142.35V52.65C993.412 50.45 994.162 48.65 995.662 47.25C997.162 45.75 999.112 45 1001.51 45C1003.51 45 1005.26 45.75 1006.76 47.25C1008.36 48.65 1009.16 50.45 1009.16 52.65V142.35Z" fill="url(#paint10_linear_1237_829)"/>
<path d="M271.347 173.512C237.169 206.503 215.384 228.149 203.656 242.342C194.179 253.81 188.645 269.227 191.464 283.834C191.711 285.112 192.016 286.384 192.377 287.657C198.551 309.419 219.934 328.342 242.543 329.111C256.771 329.595 267.822 321.485 279.008 312.679L292.896 301.747C318.658 285.273 332.019 283.919 346.94 290.838C358.553 296.222 369.832 304.584 373.488 316.852C379.301 336.36 367.864 359.412 357.5 385L550.394 187.336C571.167 166.05 589.903 140.83 592.595 111.211C594.207 93.4827 591.102 77.3818 581.513 58.8554C572.531 41.4987 558.339 27.2564 541.628 17.1232C510.479 -1.76393 485.973 -4.50561 454.775 6.33468C434.99 13.2098 418.298 26.5609 403.486 41.3722L271.347 173.512Z" fill="url(#paint11_linear_1237_829)"/>
<path d="M189.087 118.132L258.698 185.877L222.04 222.657C209.22 235.52 195.788 249.406 192.312 267.231C190.473 276.66 191.684 285.835 196.833 296.726C203.633 311.109 215.578 322.261 231.016 326.107C248.103 330.365 266.076 321.419 280.218 310.926L296.061 299.172C320.042 283.694 334.026 279.665 362.043 299.172C374.977 309.305 381.225 318.815 381.49 332.192C382.016 358.783 362.384 380.906 343.578 399.712C325.757 417.533 305.095 433.976 280.244 438.173C270.085 439.889 259.538 440.09 247.099 438.323C217.168 434.073 191.615 415.605 170.238 394.229L48.3503 272.341C24.5145 248.505 4.61911 219.397 0.842184 185.9C-2.03178 160.411 2.24751 140.73 16.8081 119.726C22.7924 111.093 30.4126 103.678 38.7958 97.349C63.0675 79.026 84.1537 71.4883 115.357 76.2074C143.924 80.5279 168.381 97.9808 189.087 118.132Z" fill="url(#paint12_linear_1237_829)"/>
<circle cx="1269.5" cy="383.5" r="16.5" fill="url(#paint13_linear_1237_829)"/>
<defs>
<linearGradient id="paint0_linear_1237_829" x1="849.46" y1="307.254" x2="1339.74" y2="307.254" gradientUnits="userSpaceOnUse">
<stop stop-color="white"/>
<stop offset="0.14" stop-color="#6CD3FE"/>
<stop offset="0.4" stop-color="#2090FF"/>
<stop offset="0.432692" stop-color="#1F87F3"/>
<stop offset="0.71" stop-color="#1A3B8F"/>
<stop offset="1" stop-color="#061953"/>
</linearGradient>
<linearGradient id="paint1_linear_1237_829" x1="849.46" y1="307.254" x2="1339.74" y2="307.254" gradientUnits="userSpaceOnUse">
<stop stop-color="white"/>
<stop offset="0.14" stop-color="#6CD3FE"/>
<stop offset="0.4" stop-color="#2090FF"/>
<stop offset="0.432692" stop-color="#1F87F3"/>
<stop offset="0.71" stop-color="#1A3B8F"/>
<stop offset="1" stop-color="#061953"/>
</linearGradient>
<linearGradient id="paint2_linear_1237_829" x1="836.5" y1="296" x2="1047.5" y2="296" gradientUnits="userSpaceOnUse">
<stop stop-color="#FF4601"/>
<stop offset="1" stop-color="#FF6901"/>
</linearGradient>
<linearGradient id="paint3_linear_1237_829" x1="836.5" y1="296" x2="1047.5" y2="296" gradientUnits="userSpaceOnUse">
<stop stop-color="#FF4601"/>
<stop offset="1" stop-color="#FF6901"/>
</linearGradient>
<linearGradient id="paint4_linear_1237_829" x1="633.836" y1="330.52" x2="851.464" y2="327.095" gradientUnits="userSpaceOnUse">
<stop stop-color="#F91302"/>
<stop offset="1" stop-color="#FF680B"/>
</linearGradient>
<linearGradient id="paint5_linear_1237_829" x1="633.836" y1="330.52" x2="851.464" y2="327.095" gradientUnits="userSpaceOnUse">
<stop stop-color="#F91302"/>
<stop offset="1" stop-color="#FF680B"/>
</linearGradient>
<linearGradient id="paint6_linear_1237_829" x1="633.515" y1="263.056" x2="851.143" y2="266.481" gradientUnits="userSpaceOnUse">
<stop stop-color="#F91302"/>
<stop offset="1" stop-color="#FF680B"/>
</linearGradient>
<linearGradient id="paint7_linear_1237_829" x1="633.515" y1="263.056" x2="851.143" y2="266.481" gradientUnits="userSpaceOnUse">
<stop stop-color="#F91302"/>
<stop offset="1" stop-color="#FF680B"/>
</linearGradient>
<linearGradient id="paint8_linear_1237_829" x1="1030.25" y1="307.669" x2="1461.62" y2="307.669" gradientUnits="userSpaceOnUse">
<stop stop-color="white"/>
<stop offset="0.14" stop-color="#6CD3FE"/>
<stop offset="0.4" stop-color="#2090FF"/>
<stop offset="0.432692" stop-color="#1F87F3"/>
<stop offset="0.71" stop-color="#1A3B8F"/>
<stop offset="1" stop-color="#061953"/>
</linearGradient>
<linearGradient id="paint9_linear_1237_829" x1="1026.5" y1="296" x2="1246.5" y2="296" gradientUnits="userSpaceOnUse">
<stop stop-color="#FF7504"/>
<stop offset="1" stop-color="#FE9100"/>
</linearGradient>
<linearGradient id="paint10_linear_1237_829" x1="832.5" y1="0" x2="832.5" y2="188" gradientUnits="userSpaceOnUse">
<stop stop-color="#FDAB01"/>
<stop offset="1" stop-color="#E70200"/>
</linearGradient>
<linearGradient id="paint11_linear_1237_829" x1="-209.5" y1="802.5" x2="1335" y2="-609.5" gradientUnits="userSpaceOnUse">
<stop offset="0.254808" stop-color="white"/>
<stop offset="0.557692" stop-color="#FE8A01"/>
<stop offset="1" stop-color="#E90202"/>
</linearGradient>
<linearGradient id="paint12_linear_1237_829" x1="40.5" y1="98" x2="865.5" y2="1000" gradientUnits="userSpaceOnUse">
<stop stop-color="#F95601"/>
<stop offset="0.3125" stop-color="#FE7501"/>
</linearGradient>
<linearGradient id="paint13_linear_1237_829" x1="1058" y1="450" x2="1427.5" y2="340.5" gradientUnits="userSpaceOnUse">
<stop offset="0.521313" stop-color="#FE8E01"/>
<stop offset="0.836538" stop-color="white"/>
</linearGradient>
</defs>
</svg>
